solid in_pci
 facet normal 5.211606765e-13 0.1045284632 -0.9945218954
  outer loop
   vertex 0.0009266790296 -0.004633209071 -0.0004869698962
   vertex 0.0008637518564 -0.003703361113 -0.0003892389377
   vertex 0.001636445002 -0.003579053186 -0.0003761736481
  endloop
 endfacet
 facet normal 5.211606765e-13 0.1045284632 -0.9945218954
  outer loop
   vertex 0.0009266790296 -0.004633209071 -0.0004869698962
   vertex 0.001636445002 -0.003579053186 -0.0003761736481
   vertex 0.001817746304 -0.004364387513 -0.0004587156119
  endloop
 endfacet
 facet normal 5.718261447e-11 0.1045284632 -0.9945218954
  outer loop
   vertex 0.001817746304 -0.004364387513 -0.0004587156119
   vertex 0.001636445002 -0.003579053186 -0.0003761736481
   vertex 0.002311027079 -0.003206112052 -0.0003369759554
  endloop
 endfacet
 facet normal 5.718261447e-11 0.1045284632 -0.9945218954
  outer loop
   vertex 0.001817746304 -0.004364387513 -0.0004587156119
   vertex 0.002311027079 -0.003206112052 -0.0003369759554
   vertex 0.002638958607 -0.00392784499 -0.0004128331439
  endloop
 endfacet
 facet normal 2.662820636e-11 0.1045284632 -0.9945218954
  outer loop
   vertex 0 -0.004723979003 -0.0004965102005
   vertex 0 -0.003779183202 -0.0003972081604
   vertex 0.0008637518564 -0.003703361113 -0.0003892389377
  endloop
 endfacet
 facet normal 2.662820636e-11 0.1045284632 -0.9945218954
  outer loop
   vertex 0 -0.004723979003 -0.0004965102005
   vertex 0.0008637518564 -0.003703361113 -0.0003892389377
   vertex 0.0009266790296 -0.004633209071 -0.0004869698962
  endloop
 endfacet
 facet normal -2.470443343e-11 0.1045284633 -0.9945218954
  outer loop
   vertex 0.0008637518564 -0.003703361113 -0.0003892389377
   vertex 0.0008759269302 -0.002861271169 -0.0003007317181
   vertex 0.001494432753 -0.003014920392 -0.0003168809022
  endloop
 endfacet
 facet normal -2.470443343e-11 0.1045284633 -0.9945218954
  outer loop
   vertex 0.0008637518564 -0.003703361113 -0.0003892389377
   vertex 0.001494432753 -0.003014920392 -0.0003168809022
   vertex 0.001636445002 -0.003579053186 -0.0003761736481
  endloop
 endfacet
 facet normal 7.074196711e-11 0.1045284633 -0.9945218954
  outer loop
   vertex 0.002638958607 -0.00392784499 -0.0004128331439
   vertex 0.002311027079 -0.003206112052 -0.0003369759554
   vertex 0.002969988787 -0.002759243064 -0.0002900081321
  endloop
 endfacet
 facet normal 7.074196711e-11 0.1045284633 -0.9945218954
  outer loop
   vertex 0.002638958607 -0.00392784499 -0.0004128331439
   vertex 0.002969988787 -0.002759243064 -0.0002900081321
   vertex 0.003358757211 -0.003340357587 -0.0003510857297
  endloop
 endfacet
 facet normal -4.112623347e-11 0.1045284633 -0.9945218954
  outer loop
   vertex 0.001636445002 -0.003579053186 -0.0003761736481
   vertex 0.001494432753 -0.003014920392 -0.0003168809022
   vertex 0.001969964663 -0.002556198428 -0.000268667281
  endloop
 endfacet
 facet normal -4.112623347e-11 0.1045284633 -0.9945218954
  outer loop
   vertex 0.001636445002 -0.003579053186 -0.0003761736481
   vertex 0.001969964663 -0.002556198428 -0.000268667281
   vertex 0.002311027079 -0.003206112052 -0.0003369759554
  endloop
 endfacet
 facet normal -1.767943707e-11 0.1045284632 -0.9945218954
  outer loop
   vertex 0 -0.003779183202 -0.0003972081604
   vertex 0 -0.004723979003 -0.0004965102005
   vertex -0.0009266790296 -0.004633209071 -0.0004869698962
  endloop
 endfacet
 facet normal -1.767943707e-11 0.1045284632 -0.9945218954
  outer loop
   vertex 0 -0.003779183202 -0.0003972081604
   vertex -0.0009266790296 -0.004633209071 -0.0004869698962
   vertex -0.0008790136694 -0.003710442025 -0.0003899831715
  endloop
 endfacet
 facet normal 1.691632621e-11 0.1045284633 -0.9945218954
  outer loop
   vertex 0.0008637518564 -0.003703361113 -0.0003892389377
   vertex 0 -0.003779183202 -0.0003972081604
   vertex 0 -0.002834387402 -0.0002979061203
  endloop
 endfacet
 facet normal 1.691632621e-11 0.1045284633 -0.9945218954
  outer loop
   vertex 0.0008637518564 -0.003703361113 -0.0003892389377
   vertex 0 -0.002834387402 -0.0002979061203
   vertex 0.0008759269302 -0.002861271169 -0.0003007317181
  endloop
 endfacet
 facet normal -4.061745118e-11 0.1045284633 -0.9945218954
  outer loop
   vertex 0.00129711184 -0.001883216051 -0.0001979339829
   vertex 0.001969964663 -0.002556198428 -0.000268667281
   vertex 0.001494432753 -0.003014920392 -0.0003168809022
  endloop
 endfacet
 facet normal -4.061745118e-11 0.1045284633 -0.9945218954
  outer loop
   vertex 0.00129711184 -0.001883216051 -0.0001979339829
   vertex 0.001494432753 -0.003014920392 -0.0003168809022
   vertex 0.0008759269302 -0.002861271169 -0.0003007317181
  endloop
 endfacet
 facet normal -2.188581607e-10 0.1045284632 -0.9945218954
  outer loop
   vertex 0.003358757211 -0.003340357587 -0.0003510857297
   vertex 0.002969988787 -0.002759243064 -0.0002900081321
   vertex 0.003494368929 -0.002403846195 -0.0002526544161
  endloop
 endfacet
 facet normal -2.188581607e-10 0.1045284632 -0.9945218954
  outer loop
   vertex 0.003358757211 -0.003340357587 -0.0003510857297
   vertex 0.003494368929 -0.002403846195 -0.0002526544161
   vertex 0.003949480658 -0.002624502116 -0.0002758462878
  endloop
 endfacet
 facet normal 8.140389749e-11 0.1045284633 -0.9945218954
  outer loop
   vertex 0.002311027079 -0.003206112052 -0.0003369759554
   vertex 0.001969964663 -0.002556198428 -0.000268667281
   vertex 0.002712043413 -0.002118854295 -0.0002227005603
  endloop
 endfacet
 facet normal 8.140389749e-11 0.1045284633 -0.9945218954
  outer loop
   vertex 0.002311027079 -0.003206112052 -0.0003369759554
   vertex 0.002712043413 -0.002118854295 -0.0002227005603
   vertex 0.002969988787 -0.002759243064 -0.0002900081321
  endloop
 endfacet
 facet normal -3.603911511e-11 0.1045284632 -0.9945218954
  outer loop
   vertex -0.0009266790296 -0.004633209071 -0.0004869698962
   vertex -0.001817746304 -0.004364387513 -0.0004587156119
   vertex -0.001691939327 -0.003604116419 -0.0003788079
  endloop
 endfacet
 facet normal -3.603911511e-11 0.1045284632 -0.9945218954
  outer loop
   vertex -0.0009266790296 -0.004633209071 -0.0004869698962
   vertex -0.001691939327 -0.003604116419 -0.0003788079
   vertex -0.0008790136694 -0.003710442025 -0.0003899831715
  endloop
 endfacet
 facet normal -6.321847426e-11 0.1045284633 -0.9945218954
  outer loop
   vertex 0 -0.002834387402 -0.0002979061203
   vertex 0 -0.003779183202 -0.0003972081604
   vertex -0.0008790136694 -0.003710442025 -0.0003899831715
  endloop
 endfacet
 facet normal -6.321847426e-11 0.1045284633 -0.9945218954
  outer loop
   vertex 0 -0.002834387402 -0.0002979061203
   vertex -0.0008790136694 -0.003710442025 -0.0003899831715
   vertex -0.0009038009887 -0.002848304498 -0.000299368866
  endloop
 endfacet
 facet normal -5.240860901e-12 0.1045284632 -0.9945218954
  outer loop
   vertex 0 -0.002834387402 -0.0002979061203
   vertex 0 -0.001889591601 -0.0001986040802
   vertex 0.00129711184 -0.001883216051 -0.0001979339829
  endloop
 endfacet
 facet normal -5.240860901e-12 0.1045284632 -0.9945218954
  outer loop
   vertex 0 -0.002834387402 -0.0002979061203
   vertex 0.00129711184 -0.001883216051 -0.0001979339829
   vertex 0.0008759269302 -0.002861271169 -0.0003007317181
  endloop
 endfacet
 facet normal 1.547456645e-11 0.1045284632 -0.9945218954
  outer loop
   vertex 0.00129711184 -0.001883216051 -0.0001979339829
   vertex 0.002471376446 -0.001359324543 -0.0001428707666
   vertex 0.002712043413 -0.002118854295 -0.0002227005603
  endloop
 endfacet
 facet normal 1.547456645e-11 0.1045284632 -0.9945218954
  outer loop
   vertex 0.00129711184 -0.001883216051 -0.0001979339829
   vertex 0.002712043413 -0.002118854295 -0.0002227005603
   vertex 0.001969964663 -0.002556198428 -0.000268667281
  endloop
 endfacet
 facet normal 3.49212052e-10 0.1045284634 -0.9945218954
  outer loop
   vertex 0.003949480658 -0.002624502116 -0.0002758462878
   vertex 0.003494368929 -0.002403846195 -0.0002526544161
   vertex 0.003489432785 -0.001831557697 -0.0001925044711
  endloop
 endfacet
 facet normal 3.49212052e-10 0.1045284634 -0.9945218954
  outer loop
   vertex 0.003949480658 -0.002624502116 -0.0002758462878
   vertex 0.003489432785 -0.001831557697 -0.0001925044711
   vertex 0.004388427779 -0.001807788499 -0.0001900062277
  endloop
 endfacet
 facet normal -1.649403116e-10 0.1045284631 -0.9945218954
  outer loop
   vertex 0.003494368929 -0.002403846195 -0.0002526544161
   vertex 0.002969988787 -0.002759243064 -0.0002900081321
   vertex 0.002712043413 -0.002118854295 -0.0002227005603
  endloop
 endfacet
 facet normal -1.649403116e-10 0.1045284631 -0.9945218954
  outer loop
   vertex 0.003494368929 -0.002403846195 -0.0002526544161
   vertex 0.002712043413 -0.002118854295 -0.0002227005603
   vertex 0.003489432785 -0.001831557697 -0.0001925044711
  endloop
 endfacet
 facet normal -3.991836039e-11 0.1045284631 -0.9945218954
  outer loop
   vertex -0.001817746304 -0.004364387513 -0.0004587156119
   vertex -0.002638958607 -0.00392784499 -0.0004128331439
   vertex -0.002314718034 -0.003512197675 -0.0003691468508
  endloop
 endfacet
 facet normal -3.991836039e-11 0.1045284631 -0.9945218954
  outer loop
   vertex -0.001817746304 -0.004364387513 -0.0004587156119
   vertex -0.002314718034 -0.003512197675 -0.0003691468508
   vertex -0.001691939327 -0.003604116419 -0.0003788079
  endloop
 endfacet
 facet normal 1.138290552e-10 0.1045284632 -0.9945218954
  outer loop
   vertex -0.001691939327 -0.003604116419 -0.0003788079
   vertex -0.001769312318 -0.002873088074 -0.0003019737249
   vertex -0.0009038009887 -0.002848304498 -0.000299368866
  endloop
 endfacet
 facet normal 1.138290552e-10 0.1045284632 -0.9945218954
  outer loop
   vertex -0.001691939327 -0.003604116419 -0.0003788079
   vertex -0.0009038009887 -0.002848304498 -0.000299368866
   vertex -0.0008790136694 -0.003710442025 -0.0003899831715
  endloop
 endfacet
 facet normal -3.468014868e-11 0.1045284632 -0.9945218954
  outer loop
   vertex 0 -0.001889591601 -0.0001986040802
   vertex 0 -0.002834387402 -0.0002979061203
   vertex -0.0009038009887 -0.002848304498 -0.000299368866
  endloop
 endfacet
 facet normal -3.468014868e-11 0.1045284632 -0.9945218954
  outer loop
   vertex 0 -0.001889591601 -0.0001986040802
   vertex -0.0009038009887 -0.002848304498 -0.000299368866
   vertex -0.0009704553369 -0.001980186954 -0.0002081260354
  endloop
 endfacet
 facet normal -8.81026257e-12 0.1045284633 -0.9945218954
  outer loop
   vertex 0 -0.001889591601 -0.0001986040802
   vertex 0 -0.0009447958006 -9.93020401e-05
   vertex 0.001199550182 -0.0007941825906 -8.347195385e-05
  endloop
 endfacet
 facet normal -8.81026257e-12 0.1045284633 -0.9945218954
  outer loop
   vertex 0 -0.001889591601 -0.0001986040802
   vertex 0.001199550182 -0.0007941825906 -8.347195385e-05
   vertex 0.00129711184 -0.001883216051 -0.0001979339829
  endloop
 endfacet
 facet normal 5.380333727e-11 0.1045284633 -0.9945218954
  outer loop
   vertex 0.002471376446 -0.001359324543 -0.0001428707666
   vertex 0.003492309498 -0.001070992786 -0.0001125658777
   vertex 0.003489432785 -0.001831557697 -0.0001925044711
  endloop
 endfacet
 facet normal 5.380333727e-11 0.1045284633 -0.9945218954
  outer loop
   vertex 0.002471376446 -0.001359324543 -0.0001428707666
   vertex 0.003489432785 -0.001831557697 -0.0001925044711
   vertex 0.002712043413 -0.002118854295 -0.0002227005603
  endloop
 endfacet
 facet normal 1.204571517e-12 0.1045284633 -0.9945218954
  outer loop
   vertex 0.00129711184 -0.001883216051 -0.0001979339829
   vertex 0.001199550182 -0.0007941825906 -8.347195385e-05
   vertex 0.002342195842 -0.000487170603 -5.120369367e-05
  endloop
 endfacet
 facet normal 1.204571517e-12 0.1045284633 -0.9945218954
  outer loop
   vertex 0.00129711184 -0.001883216051 -0.0001979339829
   vertex 0.002342195842 -0.000487170603 -5.120369367e-05
   vertex 0.002471376446 -0.001359324543 -0.0001428707666
  endloop
 endfacet
 facet normal 2.154546545e-11 0.1045284633 -0.9945218954
  outer loop
   vertex 0.004388427779 -0.001807788499 -0.0001900062277
   vertex 0.003489432785 -0.001831557697 -0.0001925044711
   vertex 0.003492309498 -0.001070992786 -0.0001125658777
  endloop
 endfacet
 facet normal 2.154546545e-11 0.1045284633 -0.9945218954
  outer loop
   vertex 0.004388427779 -0.001807788499 -0.0001900062277
   vertex 0.003492309498 -0.001070992786 -0.0001125658777
   vertex 0.004658730082 -0.0009216025849 -9.68643349e-05
  endloop
 endfacet
 facet normal -4.087871325e-11 0.1045284632 -0.9945218954
  outer loop
   vertex -0.002638958607 -0.00392784499 -0.0004128331439
   vertex -0.003358757211 -0.003340357587 -0.0003510857297
   vertex -0.00256392484 -0.002976434557 -0.000312835878
  endloop
 endfacet
 facet normal -4.087871325e-11 0.1045284632 -0.9945218954
  outer loop
   vertex -0.002638958607 -0.00392784499 -0.0004128331439
   vertex -0.00256392484 -0.002976434557 -0.000312835878
   vertex -0.002314718034 -0.003512197675 -0.0003691468508
  endloop
 endfacet
 facet normal 5.579648561e-11 0.1045284632 -0.9945218954
  outer loop
   vertex -0.00256392484 -0.002976434557 -0.000312835878
   vertex -0.001769312318 -0.002873088074 -0.0003019737249
   vertex -0.001691939327 -0.003604116419 -0.0003788079
  endloop
 endfacet
 facet normal 5.579648561e-11 0.1045284632 -0.9945218954
  outer loop
   vertex -0.00256392484 -0.002976434557 -0.000312835878
   vertex -0.001691939327 -0.003604116419 -0.0003788079
   vertex -0.002314718034 -0.003512197675 -0.0003691468508
  endloop
 endfacet
 facet normal 1.096888646e-10 0.1045284633 -0.9945218954
  outer loop
   vertex -0.0009038009887 -0.002848304498 -0.000299368866
   vertex -0.001769312318 -0.002873088074 -0.0003019737249
   vertex -0.001923133392 -0.002091788183 -0.0002198557973
  endloop
 endfacet
 facet normal 1.096888646e-10 0.1045284633 -0.9945218954
  outer loop
   vertex -0.0009038009887 -0.002848304498 -0.000299368866
   vertex -0.001923133392 -0.002091788183 -0.0002198557973
   vertex -0.0009704553369 -0.001980186954 -0.0002081260354
  endloop
 endfacet
 facet normal -9.97065925e-11 0.1045284633 -0.9945218954
  outer loop
   vertex 0 -0.0009447958006 -9.93020401e-05
   vertex 0 -0.001889591601 -0.0001986040802
   vertex -0.0009704553369 -0.001980186954 -0.0002081260354
  endloop
 endfacet
 facet normal -9.97065925e-11 0.1045284633 -0.9945218954
  outer loop
   vertex 0 -0.0009447958006 -9.93020401e-05
   vertex -0.0009704553369 -0.001980186954 -0.0002081260354
   vertex -0.001048491434 -0.0010894283 -0.0001145035284
  endloop
 endfacet
 facet normal 3.27158879e-12 0.1045284633 -0.9945218954
  outer loop
   vertex 0 -0.0009447958006 -9.93020401e-05
   vertex 0 -2.842170943e-17 2.664535259e-17
   vertex 0.001123842311 0.0001704985393 1.792011859e-05
  endloop
 endfacet
 facet normal 3.27158879e-12 0.1045284633 -0.9945218954
  outer loop
   vertex 0 -0.0009447958006 -9.93020401e-05
   vertex 0.001123842311 0.0001704985393 1.792011859e-05
   vertex 0.001199550182 -0.0007941825906 -8.347195385e-05
  endloop
 endfacet
 facet normal 1.488728729e-11 0.1045284632 -0.9945218954
  outer loop
   vertex 0.002342195842 -0.000487170603 -5.120369367e-05
   vertex 0.003462165877 -0.000225529155 -2.370406936e-05
   vertex 0.003492309498 -0.001070992786 -0.0001125658777
  endloop
 endfacet
 facet normal 1.488728729e-11 0.1045284632 -0.9945218954
  outer loop
   vertex 0.002342195842 -0.000487170603 -5.120369367e-05
   vertex 0.003492309498 -0.001070992786 -0.0001125658777
   vertex 0.002471376446 -0.001359324543 -0.0001428707666
  endloop
 endfacet
 facet normal -6.302435828e-12 0.1045284633 -0.9945218954
  outer loop
   vertex 0.001199550182 -0.0007941825906 -8.347195385e-05
   vertex 0.001123842311 0.0001704985393 1.792011859e-05
   vertex 0.002224544779 0.0003952762946 4.154521266e-05
  endloop
 endfacet
 facet normal -6.302435828e-12 0.1045284633 -0.9945218954
  outer loop
   vertex 0.001199550182 -0.0007941825906 -8.347195385e-05
   vertex 0.002224544779 0.0003952762946 4.154521266e-05
   vertex 0.002342195842 -0.000487170603 -5.120369367e-05
  endloop
 endfacet
 facet normal -3.01491481e-11 0.1045284632 -0.9945218954
  outer loop
   vertex 0.004658730082 -0.0009216025849 -9.68643349e-05
   vertex 0.003492309498 -0.001070992786 -0.0001125658777
   vertex 0.003462165877 -0.000225529155 -2.370406936e-05
  endloop
 endfacet
 facet normal -3.01491481e-11 0.1045284632 -0.9945218954
  outer loop
   vertex 0.004658730082 -0.0009216025849 -9.68643349e-05
   vertex 0.003462165877 -0.000225529155 -2.370406936e-05
   vertex 0.00475 -8.677808648e-19 -9.120744417e-20
  endloop
 endfacet
 facet normal -3.573679634e-11 0.1045284633 -0.9945218954
  outer loop
   vertex -0.003358757211 -0.003340357587 -0.0003510857297
   vertex -0.003949480658 -0.002624502116 -0.0002758462878
   vertex -0.002876895324 -0.002276738146 -0.0002392948217
  endloop
 endfacet
 facet normal -3.573679634e-11 0.1045284633 -0.9945218954
  outer loop
   vertex -0.003358757211 -0.003340357587 -0.0003510857297
   vertex -0.002876895324 -0.002276738146 -0.0002392948217
   vertex -0.00256392484 -0.002976434557 -0.000312835878
  endloop
 endfacet
 facet normal -4.88800877e-11 0.1045284634 -0.9945218954
  outer loop
   vertex -0.00256392484 -0.002976434557 -0.000312835878
   vertex -0.002876895324 -0.002276738146 -0.0002392948217
   vertex -0.001923133392 -0.002091788183 -0.0002198557973
  endloop
 endfacet
 facet normal -4.88800877e-11 0.1045284634 -0.9945218954
  outer loop
   vertex -0.00256392484 -0.002976434557 -0.000312835878
   vertex -0.001923133392 -0.002091788183 -0.0002198557973
   vertex -0.001769312318 -0.002873088074 -0.0003019737249
  endloop
 endfacet
 facet normal 7.935304782e-11 0.1045284632 -0.9945218954
  outer loop
   vertex -0.0009704553369 -0.001980186954 -0.0002081260354
   vertex -0.001923133392 -0.002091788183 -0.0002198557973
   vertex -0.002084915547 -0.001260994278 -0.0001325358393
  endloop
 endfacet
 facet normal 7.935304782e-11 0.1045284632 -0.9945218954
  outer loop
   vertex -0.0009704553369 -0.001980186954 -0.0002081260354
   vertex -0.002084915547 -0.001260994278 -0.0001325358393
   vertex -0.001048491434 -0.0010894283 -0.0001145035284
  endloop
 endfacet
 facet normal 5.373506819e-11 0.1045284633 -0.9945218954
  outer loop
   vertex 0 -2.842170943e-17 2.664535259e-17
   vertex 0 -0.0009447958006 -9.93020401e-05
   vertex -0.001048491434 -0.0010894283 -0.0001145035284
  endloop
 endfacet
 facet normal 5.373506819e-11 0.1045284633 -0.9945218954
  outer loop
   vertex 0 -2.842170943e-17 2.664535259e-17
   vertex -0.001048491434 -0.0010894283 -0.0001145035284
   vertex -0.001123842311 -0.0001704985393 -1.792011859e-05
  endloop
 endfacet
 facet normal 5.374366498e-11 0.1045284633 -0.9945218954
  outer loop
   vertex 0 -2.842170943e-17 2.664535259e-17
   vertex 0 0.0009447958006 9.93020401e-05
   vertex 0.001048491434 0.0010894283 0.0001145035284
  endloop
 endfacet
 facet normal 5.374366498e-11 0.1045284633 -0.9945218954
  outer loop
   vertex 0 -2.842170943e-17 2.664535259e-17
   vertex 0.001048491434 0.0010894283 0.0001145035284
   vertex 0.001123842311 0.0001704985393 1.792011859e-05
  endloop
 endfacet
 facet normal 1.950479538e-12 0.1045284633 -0.9945218954
  outer loop
   vertex 0.002224544779 0.0003952762946 4.154521266e-05
   vertex 0.00335379914 0.0006391842819 6.718097514e-05
   vertex 0.003462165877 -0.000225529155 -2.370406936e-05
  endloop
 endfacet
 facet normal 1.950479538e-12 0.1045284633 -0.9945218954
  outer loop
   vertex 0.002224544779 0.0003952762946 4.154521266e-05
   vertex 0.003462165877 -0.000225529155 -2.370406936e-05
   vertex 0.002342195842 -0.000487170603 -5.120369367e-05
  endloop
 endfacet
 facet normal -2.310053977e-11 0.1045284633 -0.9945218954
  outer loop
   vertex 0.001123842311 0.0001704985393 1.792011859e-05
   vertex 0.001048491434 0.0010894283 0.0001145035284
   vertex 0.002084915547 0.001260994278 0.0001325358393
  endloop
 endfacet
 facet normal -2.310053977e-11 0.1045284633 -0.9945218954
  outer loop
   vertex 0.001123842311 0.0001704985393 1.792011859e-05
   vertex 0.002084915547 0.001260994278 0.0001325358393
   vertex 0.002224544779 0.0003952762946 4.154521266e-05
  endloop
 endfacet
 facet normal -2.989397433e-12 0.1045284633 -0.9945218954
  outer loop
   vertex 0.00475 -8.677808648e-19 -9.120744417e-20
   vertex 0.003462165877 -0.000225529155 -2.370406936e-05
   vertex 0.00335379914 0.0006391842819 6.718097514e-05
  endloop
 endfacet
 facet normal -2.989397433e-12 0.1045284633 -0.9945218954
  outer loop
   vertex 0.00475 -8.677808648e-19 -9.120744417e-20
   vertex 0.00335379914 0.0006391842819 6.718097514e-05
   vertex 0.004658730082 0.0009216025849 9.68643349e-05
  endloop
 endfacet
 facet normal -4.926213214e-11 0.1045284632 -0.9945218954
  outer loop
   vertex -0.003949480658 -0.002624502116 -0.0002758462878
   vertex -0.004388427779 -0.001807788499 -0.0001900062277
   vertex -0.003154518003 -0.001484357387 -0.0001560122481
  endloop
 endfacet
 facet normal -4.926213214e-11 0.1045284632 -0.9945218954
  outer loop
   vertex -0.003949480658 -0.002624502116 -0.0002758462878
   vertex -0.003154518003 -0.001484357387 -0.0001560122481
   vertex -0.002876895324 -0.002276738146 -0.0002392948217
  endloop
 endfacet
 facet normal 6.420728344e-11 0.1045284631 -0.9945218954
  outer loop
   vertex -0.002876895324 -0.002276738146 -0.0002392948217
   vertex -0.003154518003 -0.001484357387 -0.0001560122481
   vertex -0.002084915547 -0.001260994278 -0.0001325358393
  endloop
 endfacet
 facet normal 6.420728344e-11 0.1045284631 -0.9945218954
  outer loop
   vertex -0.002876895324 -0.002276738146 -0.0002392948217
   vertex -0.002084915547 -0.001260994278 -0.0001325358393
   vertex -0.001923133392 -0.002091788183 -0.0002198557973
  endloop
 endfacet
 facet normal -2.152113153e-11 0.1045284633 -0.9945218954
  outer loop
   vertex -0.001048491434 -0.0010894283 -0.0001145035284
   vertex -0.002084915547 -0.001260994278 -0.0001325358393
   vertex -0.002224544779 -0.0003952762946 -4.154521266e-05
  endloop
 endfacet
 facet normal -2.152113153e-11 0.1045284633 -0.9945218954
  outer loop
   vertex -0.001048491434 -0.0010894283 -0.0001145035284
   vertex -0.002224544779 -0.0003952762946 -4.154521266e-05
   vertex -0.001123842311 -0.0001704985393 -1.792011859e-05
  endloop
 endfacet
 facet normal 3.333495808e-12 0.1045284633 -0.9945218954
  outer loop
   vertex 0 0.0009447958006 9.93020401e-05
   vertex 0 -2.842170943e-17 2.664535259e-17
   vertex -0.001123842311 -0.0001704985393 -1.792011859e-05
  endloop
 endfacet
 facet normal 3.333495808e-12 0.1045284633 -0.9945218954
  outer loop
   vertex 0 0.0009447958006 9.93020401e-05
   vertex -0.001123842311 -0.0001704985393 -1.792011859e-05
   vertex -0.001199550182 0.0007941825906 8.347195385e-05
  endloop
 endfacet
 facet normal -9.97065925e-11 0.1045284633 -0.9945218954
  outer loop
   vertex 0 0.0009447958006 9.93020401e-05
   vertex 0 0.001889591601 0.0001986040802
   vertex 0.0009704553369 0.001980186954 0.0002081260354
  endloop
 endfacet
 facet normal -9.97065925e-11 0.1045284633 -0.9945218954
  outer loop
   vertex 0 0.0009447958006 9.93020401e-05
   vertex 0.0009704553369 0.001980186954 0.0002081260354
   vertex 0.001048491434 0.0010894283 0.0001145035284
  endloop
 endfacet
 facet normal 1.815990147e-11 0.1045284634 -0.9945218954
  outer loop
   vertex 0.002084915547 0.001260994278 0.0001325358393
   vertex 0.003154518003 0.001484357387 0.0001560122481
   vertex 0.00335379914 0.0006391842819 6.718097514e-05
  endloop
 endfacet
 facet normal 1.815990147e-11 0.1045284634 -0.9945218954
  outer loop
   vertex 0.002084915547 0.001260994278 0.0001325358393
   vertex 0.00335379914 0.0006391842819 6.718097514e-05
   vertex 0.002224544779 0.0003952762946 4.154521266e-05
  endloop
 endfacet
 facet normal 9.109048102e-11 0.1045284631 -0.9945218954
  outer loop
   vertex 0.001048491434 0.0010894283 0.0001145035284
   vertex 0.0009704553369 0.001980186954 0.0002081260354
   vertex 0.001923133392 0.002091788183 0.0002198557973
  endloop
 endfacet
 facet normal 9.109048102e-11 0.1045284631 -0.9945218954
  outer loop
   vertex 0.001048491434 0.0010894283 0.0001145035284
   vertex 0.001923133392 0.002091788183 0.0002198557973
   vertex 0.002084915547 0.001260994278 0.0001325358393
  endloop
 endfacet
 facet normal -2.104862903e-11 0.1045284634 -0.9945218954
  outer loop
   vertex 0.004658730082 0.0009216025849 9.68643349e-05
   vertex 0.00335379914 0.0006391842819 6.718097514e-05
   vertex 0.003154518003 0.001484357387 0.0001560122481
  endloop
 endfacet
 facet normal -2.104862903e-11 0.1045284634 -0.9945218954
  outer loop
   vertex 0.004658730082 0.0009216025849 9.68643349e-05
   vertex 0.003154518003 0.001484357387 0.0001560122481
   vertex 0.004388427779 0.001807788499 0.0001900062277
  endloop
 endfacet
 facet normal -2.493994055e-13 0.1045284633 -0.9945218954
  outer loop
   vertex -0.004388427779 -0.001807788499 -0.0001900062277
   vertex -0.004658730082 -0.0009216025849 -9.68643349e-05
   vertex -0.00335379914 -0.0006391842819 -6.718097514e-05
  endloop
 endfacet
 facet normal -2.493994055e-13 0.1045284633 -0.9945218954
  outer loop
   vertex -0.004388427779 -0.001807788499 -0.0001900062277
   vertex -0.00335379914 -0.0006391842819 -6.718097514e-05
   vertex -0.003154518003 -0.001484357387 -0.0001560122481
  endloop
 endfacet
 facet normal -1.997214659e-11 0.1045284634 -0.9945218954
  outer loop
   vertex -0.003154518003 -0.001484357387 -0.0001560122481
   vertex -0.00335379914 -0.0006391842819 -6.718097514e-05
   vertex -0.002224544779 -0.0003952762946 -4.154521266e-05
  endloop
 endfacet
 facet normal -1.997214659e-11 0.1045284634 -0.9945218954
  outer loop
   vertex -0.003154518003 -0.001484357387 -0.0001560122481
   vertex -0.002224544779 -0.0003952762946 -4.154521266e-05
   vertex -0.002084915547 -0.001260994278 -0.0001325358393
  endloop
 endfacet
 facet normal -3.795358937e-12 0.1045284633 -0.9945218954
  outer loop
   vertex -0.001123842311 -0.0001704985393 -1.792011859e-05
   vertex -0.002224544779 -0.0003952762946 -4.154521266e-05
   vertex -0.002342195842 0.000487170603 5.120369367e-05
  endloop
 endfacet
 facet normal -3.795358937e-12 0.1045284633 -0.9945218954
  outer loop
   vertex -0.001123842311 -0.0001704985393 -1.792011859e-05
   vertex -0.002342195842 0.000487170603 5.120369367e-05
   vertex -0.001199550182 0.0007941825906 8.347195385e-05
  endloop
 endfacet
 facet normal -8.81026257e-12 0.1045284633 -0.9945218954
  outer loop
   vertex 0 0.001889591601 0.0001986040802
   vertex 0 0.0009447958006 9.93020401e-05
   vertex -0.001199550182 0.0007941825906 8.347195385e-05
  endloop
 endfacet
 facet normal -8.81026257e-12 0.1045284633 -0.9945218954
  outer loop
   vertex 0 0.001889591601 0.0001986040802
   vertex -0.001199550182 0.0007941825906 8.347195385e-05
   vertex -0.00129711184 0.001883216051 0.0001979339829
  endloop
 endfacet
 facet normal -3.468014868e-11 0.1045284632 -0.9945218954
  outer loop
   vertex 0 0.001889591601 0.0001986040802
   vertex 0 0.002834387402 0.0002979061203
   vertex 0.0009038009887 0.002848304498 0.000299368866
  endloop
 endfacet
 facet normal -3.468014868e-11 0.1045284632 -0.9945218954
  outer loop
   vertex 0 0.001889591601 0.0001986040802
   vertex 0.0009038009887 0.002848304498 0.000299368866
   vertex 0.0009704553369 0.001980186954 0.0002081260354
  endloop
 endfacet
 facet normal 2.990333847e-12 0.1045284631 -0.9945218954
  outer loop
   vertex 0.001923133392 0.002091788183 0.0002198557973
   vertex 0.002876895324 0.002276738146 0.0002392948217
   vertex 0.003154518003 0.001484357387 0.0001560122481
  endloop
 endfacet
 facet normal 2.990333847e-12 0.1045284631 -0.9945218954
  outer loop
   vertex 0.001923133392 0.002091788183 0.0002198557973
   vertex 0.003154518003 0.001484357387 0.0001560122481
   vertex 0.002084915547 0.001260994278 0.0001325358393
  endloop
 endfacet
 facet normal 1.110778493e-10 0.1045284633 -0.9945218954
  outer loop
   vertex 0.0009704553369 0.001980186954 0.0002081260354
   vertex 0.0009038009887 0.002848304498 0.000299368866
   vertex 0.001769312318 0.002873088074 0.0003019737249
  endloop
 endfacet
 facet normal 1.110778493e-10 0.1045284633 -0.9945218954
  outer loop
   vertex 0.0009704553369 0.001980186954 0.0002081260354
   vertex 0.001769312318 0.002873088074 0.0003019737249
   vertex 0.001923133392 0.002091788183 0.0002198557973
  endloop
 endfacet
 facet normal -3.054910115e-11 0.1045284631 -0.9945218954
  outer loop
   vertex 0.004388427779 0.001807788499 0.0001900062277
   vertex 0.003154518003 0.001484357387 0.0001560122481
   vertex 0.002876895324 0.002276738146 0.0002392948217
  endloop
 endfacet
 facet normal -3.054910115e-11 0.1045284631 -0.9945218954
  outer loop
   vertex 0.004388427779 0.001807788499 0.0001900062277
   vertex 0.002876895324 0.002276738146 0.0002392948217
   vertex 0.003949480658 0.002624502116 0.0002758462878
  endloop
 endfacet
 facet normal -3.96102798e-12 0.1045284633 -0.9945218954
  outer loop
   vertex -0.004658730082 -0.0009216025849 -9.68643349e-05
   vertex -0.00475 2.892602883e-19 3.040248139e-20
   vertex -0.003462165877 0.000225529155 2.370406936e-05
  endloop
 endfacet
 facet normal -3.96102798e-12 0.1045284633 -0.9945218954
  outer loop
   vertex -0.004658730082 -0.0009216025849 -9.68643349e-05
   vertex -0.003462165877 0.000225529155 2.370406936e-05
   vertex -0.00335379914 -0.0006391842819 -6.718097514e-05
  endloop
 endfacet
 facet normal 6.020605101e-12 0.1045284633 -0.9945218954
  outer loop
   vertex -0.00335379914 -0.0006391842819 -6.718097514e-05
   vertex -0.003462165877 0.000225529155 2.370406936e-05
   vertex -0.002342195842 0.000487170603 5.120369367e-05
  endloop
 endfacet
 facet normal 6.020605101e-12 0.1045284633 -0.9945218954
  outer loop
   vertex -0.00335379914 -0.0006391842819 -6.718097514e-05
   vertex -0.002342195842 0.000487170603 5.120369367e-05
   vertex -0.002224544779 -0.0003952762946 -4.154521266e-05
  endloop
 endfacet
 facet normal -4.588925257e-12 0.1045284633 -0.9945218954
  outer loop
   vertex -0.001199550182 0.0007941825906 8.347195385e-05
   vertex -0.002342195842 0.000487170603 5.120369367e-05
   vertex -0.002471376446 0.001359324543 0.0001428707666
  endloop
 endfacet
 facet normal -4.588925257e-12 0.1045284633 -0.9945218954
  outer loop
   vertex -0.001199550182 0.0007941825906 8.347195385e-05
   vertex -0.002471376446 0.001359324543 0.0001428707666
   vertex -0.00129711184 0.001883216051 0.0001979339829
  endloop
 endfacet
 facet normal -5.240860901e-12 0.1045284632 -0.9945218954
  outer loop
   vertex 0 0.002834387402 0.0002979061203
   vertex 0 0.001889591601 0.0001986040802
   vertex -0.00129711184 0.001883216051 0.0001979339829
  endloop
 endfacet
 facet normal -5.240860901e-12 0.1045284632 -0.9945218954
  outer loop
   vertex 0 0.002834387402 0.0002979061203
   vertex -0.00129711184 0.001883216051 0.0001979339829
   vertex -0.0008759269302 0.002861271169 0.0003007317181
  endloop
 endfacet
 facet normal -6.321847426e-11 0.1045284633 -0.9945218954
  outer loop
   vertex 0 0.002834387402 0.0002979061203
   vertex 0 0.003779183202 0.0003972081604
   vertex 0.0008790136694 0.003710442025 0.0003899831715
  endloop
 endfacet
 facet normal -6.321847426e-11 0.1045284633 -0.9945218954
  outer loop
   vertex 0 0.002834387402 0.0002979061203
   vertex 0.0008790136694 0.003710442025 0.0003899831715
   vertex 0.0009038009887 0.002848304498 0.000299368866
  endloop
 endfacet
 facet normal -3.392574727e-11 0.1045284633 -0.9945218954
  outer loop
   vertex 0.002876895324 0.002276738146 0.0002392948217
   vertex 0.001923133392 0.002091788183 0.0002198557973
   vertex 0.001769312318 0.002873088074 0.0003019737249
  endloop
 endfacet
 facet normal -3.392574727e-11 0.1045284633 -0.9945218954
  outer loop
   vertex 0.002876895324 0.002276738146 0.0002392948217
   vertex 0.001769312318 0.002873088074 0.0003019737249
   vertex 0.00256392484 0.002976434557 0.000312835878
  endloop
 endfacet
 facet normal 1.423374667e-11 0.1045284633 -0.9945218954
  outer loop
   vertex 0.0009038009887 0.002848304498 0.000299368866
   vertex 0.0008790136694 0.003710442025 0.0003899831715
   vertex 0.001691939327 0.003604116419 0.0003788079
  endloop
 endfacet
 facet normal 1.423374667e-11 0.1045284633 -0.9945218954
  outer loop
   vertex 0.0009038009887 0.002848304498 0.000299368866
   vertex 0.001691939327 0.003604116419 0.0003788079
   vertex 0.001769312318 0.002873088074 0.0003019737249
  endloop
 endfacet
 facet normal -5.777782785e-11 0.1045284634 -0.9945218954
  outer loop
   vertex 0.003949480658 0.002624502116 0.0002758462878
   vertex 0.002876895324 0.002276738146 0.0002392948217
   vertex 0.00256392484 0.002976434557 0.000312835878
  endloop
 endfacet
 facet normal -5.777782785e-11 0.1045284634 -0.9945218954
  outer loop
   vertex 0.003949480658 0.002624502116 0.0002758462878
   vertex 0.00256392484 0.002976434557 0.000312835878
   vertex 0.003358757211 0.003340357587 0.0003510857297
  endloop
 endfacet
 facet normal -3.629239579e-11 0.1045284633 -0.9945218954
  outer loop
   vertex -0.00475 2.892602883e-19 3.040248139e-20
   vertex -0.004658730082 0.0009216025849 9.68643349e-05
   vertex -0.003492309498 0.001070992786 0.0001125658777
  endloop
 endfacet
 facet normal -3.629239579e-11 0.1045284633 -0.9945218954
  outer loop
   vertex -0.00475 2.892602883e-19 3.040248139e-20
   vertex -0.003492309498 0.001070992786 0.0001125658777
   vertex -0.003462165877 0.000225529155 2.370406936e-05
  endloop
 endfacet
 facet normal 8.849102559e-11 0.1045284632 -0.9945218954
  outer loop
   vertex -0.003462165877 0.000225529155 2.370406936e-05
   vertex -0.003492309498 0.001070992786 0.0001125658777
   vertex -0.002471376446 0.001359324543 0.0001428707666
  endloop
 endfacet
 facet normal 8.849102559e-11 0.1045284632 -0.9945218954
  outer loop
   vertex -0.003462165877 0.000225529155 2.370406936e-05
   vertex -0.002471376446 0.001359324543 0.0001428707666
   vertex -0.002342195842 0.000487170603 5.120369367e-05
  endloop
 endfacet
 facet normal -1.443221569e-11 0.1045284633 -0.9945218954
  outer loop
   vertex -0.001969964663 0.002556198428 0.000268667281
   vertex -0.00129711184 0.001883216051 0.0001979339829
   vertex -0.002471376446 0.001359324543 0.0001428707666
  endloop
 endfacet
 facet normal -1.443221569e-11 0.1045284633 -0.9945218954
  outer loop
   vertex -0.001969964663 0.002556198428 0.000268667281
   vertex -0.002471376446 0.001359324543 0.0001428707666
   vertex -0.002712043413 0.002118854295 0.0002227005603
  endloop
 endfacet
 facet normal -3.03511741e-11 0.1045284633 -0.9945218954
  outer loop
   vertex 0 0.003779183202 0.0003972081604
   vertex 0 0.002834387402 0.0002979061203
   vertex -0.0008759269302 0.002861271169 0.0003007317181
  endloop
 endfacet
 facet normal -3.03511741e-11 0.1045284633 -0.9945218954
  outer loop
   vertex 0 0.003779183202 0.0003972081604
   vertex -0.0008759269302 0.002861271169 0.0003007317181
   vertex -0.0008637518564 0.003703361113 0.0003892389377
  endloop
 endfacet
 facet normal -4.061745118e-11 0.1045284633 -0.9945218954
  outer loop
   vertex -0.00129711184 0.001883216051 0.0001979339829
   vertex -0.001969964663 0.002556198428 0.000268667281
   vertex -0.001494432753 0.003014920392 0.0003168809022
  endloop
 endfacet
 facet normal -4.061745118e-11 0.1045284633 -0.9945218954
  outer loop
   vertex -0.00129711184 0.001883216051 0.0001979339829
   vertex -0.001494432753 0.003014920392 0.0003168809022
   vertex -0.0008759269302 0.002861271169 0.0003007317181
  endloop
 endfacet
 facet normal -1.767943707e-11 0.1045284632 -0.9945218954
  outer loop
   vertex 0 0.003779183202 0.0003972081604
   vertex 0 0.004723979003 0.0004965102005
   vertex 0.0009266790296 0.004633209071 0.0004869698962
  endloop
 endfacet
 facet normal -1.767943707e-11 0.1045284632 -0.9945218954
  outer loop
   vertex 0 0.003779183202 0.0003972081604
   vertex 0.0009266790296 0.004633209071 0.0004869698962
   vertex 0.0008790136694 0.003710442025 0.0003899831715
  endloop
 endfacet
 facet normal 5.579648561e-11 0.1045284632 -0.9945218954
  outer loop
   vertex 0.00256392484 0.002976434557 0.000312835878
   vertex 0.001769312318 0.002873088074 0.0003019737249
   vertex 0.001691939327 0.003604116419 0.0003788079
  endloop
 endfacet
 facet normal 5.579648561e-11 0.1045284632 -0.9945218954
  outer loop
   vertex 0.00256392484 0.002976434557 0.000312835878
   vertex 0.001691939327 0.003604116419 0.0003788079
   vertex 0.002314718034 0.003512197675 0.0003691468508
  endloop
 endfacet
 facet normal -2.522930359e-11 0.1045284633 -0.9945218954
  outer loop
   vertex 0.0008790136694 0.003710442025 0.0003899831715
   vertex 0.0009266790296 0.004633209071 0.0004869698962
   vertex 0.001817746304 0.004364387513 0.0004587156119
  endloop
 endfacet
 facet normal -2.522930359e-11 0.1045284633 -0.9945218954
  outer loop
   vertex 0.0008790136694 0.003710442025 0.0003899831715
   vertex 0.001817746304 0.004364387513 0.0004587156119
   vertex 0.001691939327 0.003604116419 0.0003788079
  endloop
 endfacet
 facet normal -6.506606966e-11 0.1045284632 -0.9945218954
  outer loop
   vertex 0.003358757211 0.003340357587 0.0003510857297
   vertex 0.00256392484 0.002976434557 0.000312835878
   vertex 0.002314718034 0.003512197675 0.0003691468508
  endloop
 endfacet
 facet normal -6.506606966e-11 0.1045284632 -0.9945218954
  outer loop
   vertex 0.003358757211 0.003340357587 0.0003510857297
   vertex 0.002314718034 0.003512197675 0.0003691468508
   vertex 0.002638958607 0.00392784499 0.0004128331439
  endloop
 endfacet
 facet normal 2.393053947e-11 0.1045284633 -0.9945218954
  outer loop
   vertex -0.004658730082 0.0009216025849 9.68643349e-05
   vertex -0.004388427779 0.001807788499 0.0001900062277
   vertex -0.003489432785 0.001831557697 0.0001925044711
  endloop
 endfacet
 facet normal 2.393053947e-11 0.1045284633 -0.9945218954
  outer loop
   vertex -0.004658730082 0.0009216025849 9.68643349e-05
   vertex -0.003489432785 0.001831557697 0.0001925044711
   vertex -0.003492309498 0.001070992786 0.0001125658777
  endloop
 endfacet
 facet normal -6.363552264e-11 0.1045284633 -0.9945218954
  outer loop
   vertex -0.003492309498 0.001070992786 0.0001125658777
   vertex -0.003489432785 0.001831557697 0.0001925044711
   vertex -0.002712043413 0.002118854295 0.0002227005603
  endloop
 endfacet
 facet normal -6.363552264e-11 0.1045284633 -0.9945218954
  outer loop
   vertex -0.003492309498 0.001070992786 0.0001125658777
   vertex -0.002712043413 0.002118854295 0.0002227005603
   vertex -0.002471376446 0.001359324543 0.0001428707666
  endloop
 endfacet
 facet normal 9.383819639e-11 0.1045284632 -0.9945218954
  outer loop
   vertex -0.002712043413 0.002118854295 0.0002227005603
   vertex -0.002969988787 0.002759243064 0.0002900081321
   vertex -0.002311027079 0.003206112052 0.0003369759554
  endloop
 endfacet
 facet normal 9.383819639e-11 0.1045284632 -0.9945218954
  outer loop
   vertex -0.002712043413 0.002118854295 0.0002227005603
   vertex -0.002311027079 0.003206112052 0.0003369759554
   vertex -0.001969964663 0.002556198428 0.000268667281
  endloop
 endfacet
 facet normal 2.662820636e-11 0.1045284632 -0.9945218954
  outer loop
   vertex 0 0.004723979003 0.0004965102005
   vertex 0 0.003779183202 0.0003972081604
   vertex -0.0008637518564 0.003703361113 0.0003892389377
  endloop
 endfacet
 facet normal 2.662820636e-11 0.1045284632 -0.9945218954
  outer loop
   vertex 0 0.004723979003 0.0004965102005
   vertex -0.0008637518564 0.003703361113 0.0003892389377
   vertex -0.0009266790296 0.004633209071 0.0004869698962
  endloop
 endfacet
 facet normal -5.480942583e-12 0.1045284633 -0.9945218954
  outer loop
   vertex -0.001494432753 0.003014920392 0.0003168809022
   vertex -0.001636445002 0.003579053186 0.0003761736481
   vertex -0.0008637518564 0.003703361113 0.0003892389377
  endloop
 endfacet
 facet normal -5.480942583e-12 0.1045284633 -0.9945218954
  outer loop
   vertex -0.001494432753 0.003014920392 0.0003168809022
   vertex -0.0008637518564 0.003703361113 0.0003892389377
   vertex -0.0008759269302 0.002861271169 0.0003007317181
  endloop
 endfacet
 facet normal 3.92497103e-11 0.1045284632 -0.9945218954
  outer loop
   vertex -0.001969964663 0.002556198428 0.000268667281
   vertex -0.002311027079 0.003206112052 0.0003369759554
   vertex -0.001636445002 0.003579053186 0.0003761736481
  endloop
 endfacet
 facet normal 3.92497103e-11 0.1045284632 -0.9945218954
  outer loop
   vertex -0.001969964663 0.002556198428 0.000268667281
   vertex -0.001636445002 0.003579053186 0.0003761736481
   vertex -0.001494432753 0.003014920392 0.0003168809022
  endloop
 endfacet
 facet normal 2.665153896e-11 0.1045284632 -0.9945218954
  outer loop
   vertex 0.001691939327 0.003604116419 0.0003788079
   vertex 0.001817746304 0.004364387513 0.0004587156119
   vertex 0.002638958607 0.00392784499 0.0004128331439
  endloop
 endfacet
 facet normal 2.665153896e-11 0.1045284632 -0.9945218954
  outer loop
   vertex 0.001691939327 0.003604116419 0.0003788079
   vertex 0.002638958607 0.00392784499 0.0004128331439
   vertex 0.002314718034 0.003512197675 0.0003691468508
  endloop
 endfacet
 facet normal 2.100338807e-10 0.1045284631 -0.9945218954
  outer loop
   vertex -0.004388427779 0.001807788499 0.0001900062277
   vertex -0.003949480658 0.002624502116 0.0002758462878
   vertex -0.003494368929 0.002403846195 0.0002526544161
  endloop
 endfacet
 facet normal 2.100338807e-10 0.1045284631 -0.9945218954
  outer loop
   vertex -0.004388427779 0.001807788499 0.0001900062277
   vertex -0.003494368929 0.002403846195 0.0002526544161
   vertex -0.003489432785 0.001831557697 0.0001925044711
  endloop
 endfacet
 facet normal -3.267187988e-10 0.1045284634 -0.9945218954
  outer loop
   vertex -0.003489432785 0.001831557697 0.0001925044711
   vertex -0.003494368929 0.002403846195 0.0002526544161
   vertex -0.002969988787 0.002759243064 0.0002900081321
  endloop
 endfacet
 facet normal -3.267187988e-10 0.1045284634 -0.9945218954
  outer loop
   vertex -0.003489432785 0.001831557697 0.0001925044711
   vertex -0.002969988787 0.002759243064 0.0002900081321
   vertex -0.002712043413 0.002118854295 0.0002227005603
  endloop
 endfacet
 facet normal -7.102970014e-11 0.1045284633 -0.9945218954
  outer loop
   vertex -0.002969988787 0.002759243064 0.0002900081321
   vertex -0.003358757211 0.003340357587 0.0003510857297
   vertex -0.002638958607 0.00392784499 0.0004128331439
  endloop
 endfacet
 facet normal -7.102970014e-11 0.1045284633 -0.9945218954
  outer loop
   vertex -0.002969988787 0.002759243064 0.0002900081321
   vertex -0.002638958607 0.00392784499 0.0004128331439
   vertex -0.002311027079 0.003206112052 0.0003369759554
  endloop
 endfacet
 facet normal 4.851082297e-11 0.1045284632 -0.9945218954
  outer loop
   vertex -0.001636445002 0.003579053186 0.0003761736481
   vertex -0.001817746304 0.004364387513 0.0004587156119
   vertex -0.0009266790296 0.004633209071 0.0004869698962
  endloop
 endfacet
 facet normal 4.851082297e-11 0.1045284632 -0.9945218954
  outer loop
   vertex -0.001636445002 0.003579053186 0.0003761736481
   vertex -0.0009266790296 0.004633209071 0.0004869698962
   vertex -0.0008637518564 0.003703361113 0.0003892389377
  endloop
 endfacet
 facet normal -3.12818393e-11 0.1045284632 -0.9945218954
  outer loop
   vertex -0.002311027079 0.003206112052 0.0003369759554
   vertex -0.002638958607 0.00392784499 0.0004128331439
   vertex -0.001817746304 0.004364387513 0.0004587156119
  endloop
 endfacet
 facet normal -3.12818393e-11 0.1045284632 -0.9945218954
  outer loop
   vertex -0.002311027079 0.003206112052 0.0003369759554
   vertex -0.001817746304 0.004364387513 0.0004587156119
   vertex -0.001636445002 0.003579053186 0.0003761736481
  endloop
 endfacet
 facet normal -1.118672234e-11 0.1045284634 -0.9945218954
  outer loop
   vertex -0.003949480658 0.002624502116 0.0002758462878
   vertex -0.003358757211 0.003340357587 0.0003510857297
   vertex -0.002969988787 0.002759243064 0.0002900081321
  endloop
 endfacet
 facet normal -1.118672234e-11 0.1045284634 -0.9945218954
  outer loop
   vertex -0.003949480658 0.002624502116 0.0002758462878
   vertex -0.002969988787 0.002759243064 0.0002900081321
   vertex -0.003494368929 0.002403846195 0.0002526544161
  endloop
 endfacet
endsolid in_pci
